<svg width="1200" height="1200" viewBox="0 0 1200 1200" xmlns="http://www.w3.org/2000/svg">
 <path fill="rgb(214, 21, 68)" d="m715.62 712.5c160-142.5-18.75-243.75-177.5-325-218.75-113.75-215-288.75-31.25-320 136.25-23.75 65 91.25 107.5 181.25 20 42.5 193.75 18.75 186.25-6.25-6.25-21.25-82.5-16.25-107.5-47.5-16.25-20-3.75-65-12.5-96.25-41.25-150-302.5-116.25-368.75 18.75-80 161.25 45 255 173.75 328.75 135 76.25 200 133.75 230 266.25z"/>
 <path fill="rgb(214, 21, 68)" d="m556.88 582.5c-57.5 32.5-113.75 88.75-158.75 196.25-106.25 257.5 52.5 416.25 215 421.25h-1.25l1.25-5c8.75-41.25 35-185 36.25-332.5 0-136.25-21.25-218.75-62.5-256.25-8.75-8.75-18.75-16.25-30-23.75z"/>
 <path fill="rgb(214, 21, 68)" d="m834.38 621.25c12.5 16.25-32.5 131.25-106.25 171.25-2.5 170-47.5 350-65 406.25 110-8.75 225-90 246.25-271.25 16.25-140-16.25-241.25-75-306.25z"/>
</svg>
